# AST/ASF file generated using VICON BodyLanguage
# -----------------------------------------------
:version 1.10
:name VICON
:units
  mass 1.0
  length 0.45
  angle deg
:documentation
   .ast/.asf automatically generated from VICON data using
   VICON BodyBuilder and BodyLanguage model FoxedUp or BRILLIANT.MOD
:root
   order TX TY TZ RX RY RZ
   axis XYZ
   position 0 0 0  
   orientation 0 0 0 
:bonedata
  begin
     id 1 
     name lhipjoint
     direction 0.610259 -0.730986 0.305356 
     length 2.50941 
     axis 0 0 0  XYZ
  end
  begin
     id 2 
     name lfemur
     direction 0.34202 -0.939693 0  
     length 7.48822  
     axis 0 0 20  XYZ
    dof rx ry rz
    limits (-160.0 20.0)
           (-70.0 70.0)
           (-60.0 70.0)
  end
  begin
     id 3 
     name ltibia
     direction 0.34202 -0.939693 0   
     length 7.60141   
     axis 0 0 20   XYZ
    dof rx
    limits (-10.0 170.0)
  end
  begin
     id 4 
     name lfoot
     direction 0.0673488 -0.185039 0.980421   
     length 2.04049   
     axis -90 7.62852e-016 20   XYZ
    dof rx rz
    limits (-45.0 90.0)
           (-70.0 20.0)
  end
  begin
     id 5 
     name ltoes
     direction 1.5356e-011 -4.21729e-011 1   
     length 1.02897   
     axis -90 7.62852e-016 20   XYZ
    dof rx
    limits (-90.0 20.0)
  end
  begin
     id 6 
     name rhipjoint
     direction -0.57612 -0.754205 0.315056   
     length 2.43216  
     axis 0 0 0  XYZ 
  end
  begin
     id 7 
     name rfemur
     direction -0.34202 -0.939693 0   
     length 7.42799   
     axis 0 0 -20   XYZ
    dof rx ry rz
    limits (-160.0 20.0)
           (-70.0 70.0)
           (-70.0 60.0)
  end
  begin
     id 8 
     name rtibia
     direction -0.34202 -0.939693 0   
     length 7.69484   
     axis 0 0 -20   XYZ
    dof rx
    limits (-10.0 170.0)
 end
 begin
     id 9 
     name rfoot
     direction -0.111837 -0.30727 0.945028   
     length 2.15769  
     axis -90 -7.62852e-016 -20   XYZ
    dof rx rz
    limits (-45.0 90.0)
           (-20.0 70.0)
  end
  begin
     id 10 
     name rtoes
     direction -1.53539e-011 -4.21878e-011 1   
     length 1.07391   
     axis -90 -7.62852e-016 -20   XYZ
    dof rx
    limits (-90.0 20.0)
  end
  begin
     id 11 
     name lowerback
     direction 0.00552624 0.990109 -0.140195   
     length 2.12403   
     axis 0 0 0   XYZ
    dof rx ry rz
    limits (-20.0 45.0)
           (-30.0 30.0)
           (-30.0 30.0)
  end
  begin
     id 12 
     name upperback
     direction 0.00361898 0.999976 -0.00584723   
     length 2.13232   
     axis 0 0 0   XYZ
    dof rx ry rz
    limits (-20.0 45.0)
           (-30.0 30.0)
           (-30.0 30.0)
  end
  begin
     id 13 
     name thorax
     direction -0.000331275 0.998253 0.0590847   
     length 2.17688   
     axis 0 0 0   XYZ
    dof rx ry rz
    limits (-20.0 45.0)
           (-30.0 30.0)
           (-30.0 30.0)
  end
  begin
     id 14 
     name lowerneck
     direction -0.0561561 0.979832 0.19177   
     length 1.64159   
     axis 0 0 0   XYZ
    dof rx ry rz
    limits (-20.0 45.0)
           (-30.0 30.0)
           (-30.0 30.0)
  end
  begin
     id 15 
     name upperneck
     direction 0.0827153 0.979385 -0.184293   
     length 1.68939   
     axis 0 0 0   XYZ
    dof rx ry rz
    limits (-20.0 45.0)
           (-30.0 30.0)
           (-30.0 30.0)
  end
  begin
     id 16
     name head
     direction 0.0278583 0.995936 -0.0856488  
     length 1.70207  
     axis 0 0 0   XYZ
    dof rx ry rz
    limits (-20.0 45.0)
           (-30.0 30.0)
           (-30.0 30.0)
  end
  begin
     id 17 
     name lclavicle
     direction 0.950993 0.301131 -0.0702275  
     length 3.41652  
     axis 0 0 0   XYZ
    dof ry rz
    limits (-20.0 10.0)
           (0.0 20.0)
  end
  begin
     id 18 
     name lhumerus
     direction 1 -4.48981e-011 -3.9662e-029   
     length 5.32955   
     axis 180 -30 -90   XYZ
    dof rx ry rz
    limits (-60.0 90.0)
           (-90.0 90.0)
           (-90.0 90.0)
  end
  begin
     id 19
     name lradius
     direction 1 -4.48925e-011 -9.0549e-027   
     length 3.69232   
     axis 180 -30 -90   XYZ
    dof rx
    limits (-10.0 170.0)
  end
  begin
     id 20
     name lwrist
     direction 1 -4.49007e-011 -1.49005e-026   
     length 1.84616   
     axis 9.0955e-015 90 90   XYZ
    dof ry
    limits (-180.0 0.0)
 end
  begin
     id 21 
     name lhand
     direction 1 -4.49016e-011 -2.98023e-026   
     length 0.536598   
     axis 1.90115e-014 90 90   XYZ
    dof rx rz
    limits (-90.0 90.0)
           (-45.0 45.0)
  end
  begin
     id 22 
     name lfingers
     direction 1 -4.48924e-011 -5.9578e-026   
     length 0.432619   
     axis 3.80223e-014 90 90   XYZ
    dof rx
    limits (0.0 90.0)
  end
  begin
     id 23
     name lthumb
     direction 0.707107 -6.34947e-011 0.707107   
     length 0.621157   
     axis -90 45 -3.84942e-014   XYZ
    dof rx rz
    limits (-45.0 45.0)
           (-45.0 45.0)
  end
  begin
     id 24 
     name rclavicle
     direction -0.955495 0.276497 -0.102848   
     length 3.36357  
     axis 0 0 0   XYZ 
    dof ry rz
    limits (-10.0 20.0)
           (-20.0 0.0)
  end
  begin
     id 25 
     name rhumerus
     direction -1 -4.48961e-011 3.30983e-027  
     length 5.23431   
     axis 180 30 90   XYZ
    dof rx ry rz
    limits (-90.0 60.0)
           (-90.0 90.0)
           (-90.0 90.0)
  end
  begin
     id 26 
     name rradius
     direction -1 -4.48965e-011 -6.63263e-027   
     length 3.55301   
     axis 180 30 90   XYZ
    dof rx
    limits (-10.0 170.0)
  end
  begin
     id 27 
     name rwrist
     direction -1 -4.48942e-011 -1.48958e-026   
     length 1.77651   
     axis 9.0955e-015 -90 -90   XYZ
    dof ry
    limits (-180.0 0.0)
  end
  begin
     id 28
     name rhand
     direction -1 -4.48977e-011 -2.97966e-026   
     length 0.772522   
     axis 1.90115e-014 -90 -90   XYZ
    dof rx rz
    limits (-90.0 90.0)
           (-45.0 45.0)
  end
  begin
     id 29
     name rfingers
     direction -1 -4.49135e-011 -5.96389e-026   
     length 0.622827   
     axis 3.80223e-014 -90 -90   XYZ
    dof rx
    limits (0.0 90.0)
  end
  begin
     id 30
     name rthumb
     direction -0.707107 -6.34969e-011 0.707107   
     length 0.894259   
     axis -90 -45 3.84942e-014   XYZ
    dof rx rz
    limits (-45.0 45.0)
           (-45.0 45.0)
  end
:hierarchy
  begin
    root lhipjoint rhipjoint lowerback
    lhipjoint lfemur
    lfemur ltibia
    ltibia lfoot
    lfoot ltoes
    rhipjoint rfemur
    rfemur rtibia
    rtibia rfoot
    rfoot rtoes
    lowerback upperback
    upperback thorax
    thorax lowerneck lclavicle rclavicle
    lowerneck upperneck
    upperneck head
    lclavicle lhumerus
    lhumerus lradius
    lradius lwrist
    lwrist lhand lthumb
    lhand lfingers
    rclavicle rhumerus
    rhumerus rradius
    rradius rwrist
    rwrist rhand rthumb
    rhand rfingers
  end

#!OML:ASF F:\VICON\USERDATA\INSTALL\rory3\rory3.ASF
:FULLY-SPECIFIED
:DEGREES
150
root -14.6649 17.9226 9.95768 -3.17981 -28.6979 1.05488
lowerback 10.127 5.82558 0.983293
upperback 1.66381 7.73268 -2.17049
thorax -3.46835 3.81358 -3.77534
lowerneck -18.6192 8.47175 -7.14388
upperneck 44.3129 16.0515 1.54127
head 19.594 5.14388 5.27973
rclavicle -7.8023e-014 1.90833e-014
rhumerus -31.9996 -6.59176 -86.1144
rradius 33.5222
rwrist 5.02985
rhand -14.1655 8.98485
rfingers 7.12502
rthumb 11.9695 -20.6529
lclavicle -7.8023e-014 1.90833e-014
lhumerus -36.5115 12.7607 76.585
lradius 28.3005
lwrist -11.8879
lhand -18.8363 27.6051
lfingers 7.12502
lthumb 7.46316 57.4535
rfemur -13.6625 -8.93961 26.878
rtibia 25.1264
rfoot -6.52654 -3.01243
rtoes 18.7032
lfemur -1.70241 -6.31771 -18.7046
ltibia 48.771
lfoot 5.15926 -24.183
ltoes -18.7307
151
root -14.6316 17.9147 9.91888 -3.3154 -28.6467 1.03913
lowerback 10.0056 5.84423 1.04139
upperback 1.74482 7.76477 -2.17118
thorax -3.30706 3.83357 -3.79027
lowerneck -18.6585 8.48406 -7.03517
upperneck 44.2949 16.0555 1.49576
head 19.6137 5.15586 5.24629
rclavicle 5.66536e-014 -7.15625e-015
rhumerus -31.857 -6.86416 -85.974
rradius 33.7807
rwrist 4.93458
rhand -14.0194 9.01038
rfingers 7.12502
rthumb 12.1104 -20.6191
lclavicle 5.66536e-014 -7.15625e-015
lhumerus -36.5142 12.9689 76.5128
lradius 27.9541
lwrist -12.2087
lhand -18.8407 27.7923
lfingers 7.12502
lthumb 7.45889 57.6408
rfemur -13.7872 -8.95297 26.8568
rtibia 25.29
rfoot -6.44331 -2.98969
rtoes 17.9255
lfemur -0.880896 -6.14787 -18.8235
ltibia 47.575
lfoot 7.11139 -24.4505
ltoes -14.3541
152
root -14.5987 17.9115 9.88528 -3.46906 -28.6943 1.14505
lowerback 9.74753 5.86894 0.958005
upperback 1.84047 7.79038 -2.18038
thorax -3.07359 3.85329 -3.71891
lowerneck -18.6541 8.52843 -6.92619
upperneck 44.2472 16.1078 1.42569
head 19.6023 5.1877 5.20322
rclavicle 1.13307e-014 -2.0276e-014
rhumerus -31.7343 -6.94688 -85.9174
rradius 34.1138
rwrist 4.77352
rhand -14.082 9.02398
rfingers 7.12502
rthumb 12.05 -20.6091
lclavicle 1.13307e-014 -2.0276e-014
lhumerus -36.6057 13.2215 76.4325
lradius 27.644
lwrist -12.5627
lhand -18.2987 27.6452
lfingers 7.12502
lthumb 7.98205 57.4745
rfemur -13.9453 -8.93589 26.7085
rtibia 25.4782
rfoot -6.32664 -2.92197
rtoes 16.9774
lfemur -0.0638698 -6.00708 -19.0871
ltibia 46.305
lfoot 8.97446 -24.3104
ltoes -9.63015
153
root -14.5601 17.9057 9.84154 -3.61011 -28.6446 1.27874
lowerback 9.71716 5.87079 0.822011
upperback 1.77234 7.77881 -2.18658
thorax -3.14585 3.84665 -3.65203
lowerneck -18.5012 8.53856 -6.96072
upperneck 44.273 16.0765 1.52119
head 19.5559 5.191 5.23424
rclavicle -2.28602e-014 -7.95139e-015
rhumerus -31.907 -6.90953 -85.8349
rradius 34.5261
rwrist 4.48523
rhand -14.2355 8.82171
rfingers 7.12502
rthumb 11.902 -20.82
lclavicle -2.28602e-014 -7.95139e-015
lhumerus -36.9082 13.2488 76.3869
lradius 27.3714
lwrist -12.6439
lhand -18.1743 27.9241
lfingers 7.12502
lthumb 8.10211 57.7488
rfemur -14.179 -8.93681 26.5386
rtibia 25.6831
rfoot -6.15531 -2.92843
rtoes 15.9835
lfemur 0.677058 -5.96738 -19.3616
ltibia 45.0017
lfoot 10.7983 -24.1727
ltoes -5.28238
154
root -14.5182 17.8953 9.79045 -3.70442 -28.494 1.35784
lowerback 9.77466 5.86168 0.725014
upperback 1.62586 7.75632 -2.18087
thorax -3.34523 3.83122 -3.60941
lowerneck -18.3229 8.50212 -7.04304
upperneck 44.4204 15.9526 1.73475
head 19.5621 5.15774 5.31864
rclavicle 2.96686e-014 1.59028e-015
rhumerus -32.1917 -6.97202 -85.6677
rradius 34.9328
rwrist 4.1238
rhand -14.155 8.82189
rfingers 7.12502
rthumb 11.9796 -20.8153
lclavicle 2.96686e-014 1.59028e-015
lhumerus -37.2404 13.331 76.321
lradius 27.1182
lwrist -12.7066
lhand -18.4662 28.1395
lfingers 7.12502
lthumb 7.82041 57.9749
rfemur -14.4956 -8.96423 26.4295
rtibia 25.9509
rfoot -6.08767 -3.03827
rtoes 15.8484
lfemur 1.39752 -5.97418 -19.6021
ltibia 43.6543
lfoot 11.6767 -24.3535
ltoes -3.568
155
root -14.4737 17.8835 9.74056 -3.83081 -28.3732 1.37684
lowerback 9.78137 5.81661 0.688933
upperback 1.6318 7.69417 -2.14465
thorax -3.35642 3.80053 -3.54613
lowerneck -18.4418 8.48442 -7.24133
upperneck 44.5285 15.8867 2.05245
head 19.5886 5.13623 5.50147
rclavicle -4.17448e-015 -1.07344e-014
rhumerus -32.0956 -7.08009 -85.5218
rradius 35.0956
rwrist 3.9597
rhand -14.1542 8.98951
rfingers 7.12502
rthumb 11.9804 -20.6476
lclavicle -4.17448e-015 -1.07344e-014
lhumerus -37.3946 13.4889 76.3516
lradius 26.8224
lwrist -12.3209
lhand -18.3053 27.692
lfingers 7.12502
lthumb 7.97566 57.5215
rfemur -14.7891 -9.14153 26.3666
rtibia 26.2656
rfoot -6.09513 -2.99461
rtoes 16.2338
lfemur 2.19789 -5.9234 -19.8137
ltibia 42.3061
lfoot 11.4869 -24.4798
ltoes -4.5332
156
root -14.4286 17.8703 9.68889 -4.01651 -28.2263 1.5229
lowerback 9.73781 5.7528 0.576303
upperback 1.70867 7.5975 -2.16147
thorax -3.27057 3.75564 -3.48061
lowerneck -18.6858 8.47106 -7.46421
upperneck 44.6089 15.8269 2.41756
head 19.6198 5.11817 5.72006
rclavicle 2.77802e-014 1.23246e-014
rhumerus -31.9622 -7.58223 -85.3421
rradius 35.3524
rwrist 4.25421
rhand -14.1531 8.91854
rfingers 7.12502
rthumb 11.9815 -20.7185
lclavicle 2.77802e-014 1.23246e-014
lhumerus -37.4036 13.523 76.436
lradius 26.5785
lwrist -11.7409
lhand -18.1183 26.4031
lfingers 7.12502
lthumb 8.15619 56.2257
rfemur -15.0921 -9.32009 26.1804
rtibia 26.5908
rfoot -6.06383 -2.95472
rtoes 16.5279
lfemur 2.97525 -5.90125 -20.1514
ltibia 40.9512
lfoot 11.1756 -24.2659
ltoes -5.96285
157
root -14.3821 17.8577 9.63271 -4.06895 -28.0574 1.61374
lowerback 9.61783 5.71489 0.518428
upperback 1.69206 7.54258 -2.16628
thorax -3.23187 3.72983 -3.43525
lowerneck -18.6022 8.47325 -7.45531
upperneck 44.6412 15.792 2.47796
head 19.6099 5.11683 5.73569
rclavicle 1.85118e-014 1.19271e-015
rhumerus -32.0713 -8.2863 -85.0638
rradius 35.7663
rwrist 4.60787
rhand -14.306 9.06049
rfingers 7.12502
rthumb 11.8341 -20.5851
lclavicle 1.85118e-014 1.19271e-015
lhumerus -37.4701 13.622 76.4334
lradius 26.5012
lwrist -12.1437
lhand -19.8765 23.006
lfingers 7.12502
lthumb 6.45901 52.8876
rfemur -15.5341 -9.49621 26.0732
rtibia 26.919
rfoot -5.96588 -2.93449
rtoes 16.5219
lfemur 3.59868 -5.95178 -20.4273
ltibia 39.6193
lfoot 10.6082 -23.9124
ltoes -7.14888
158
root -14.3314 17.8462 9.57741 -4.09272 -27.9715 1.67127
lowerback 9.51569 5.70427 0.489494
upperback 1.65358 7.52806 -2.13673
thorax -3.22428 3.72315 -3.37861
lowerneck -18.4375 8.4512 -7.39413
upperneck 44.5961 15.7758 2.32482
head 19.5717 5.10783 5.63461
rclavicle -1.43125e-014 1.63003e-014
rhumerus -32.1224 -8.44998 -84.8682
rradius 36.0953
rwrist 4.40446
rhand -14.3973 9.1755
rfingers 7.12502
rthumb 11.746 -20.4752
lclavicle -1.43125e-014 1.63003e-014
lhumerus -37.6543 13.7879 76.4392
lradius 26.5338
lwrist -12.8909
lhand -22.1907 18.7942
lfingers 7.12502
lthumb 4.22459 48.7321
rfemur -15.9921 -9.55813 25.9859
rtibia 27.2615
rfoot -5.84493 -2.94202
rtoes 16.4708
lfemur 4.19349 -5.97755 -20.7003
ltibia 38.3378
lfoot 9.95527 -23.4326
ltoes -6.81314
